<?xml version="1.0" encoding="utf-8"?>
<!-- Generator: Adobe Illustrator 19.1.0, SVG Export Plug-In . SVG Version: 6.00 Build 0)  -->
<svg version="1.1" id="Layer_1" xmlns="http://www.w3.org/2000/svg" xmlns:xlink="http://www.w3.org/1999/xlink" x="0px" y="0px"
	 viewBox="0 0 512 512" style="enable-background:new 0 0 512 512;" xml:space="preserve">
<style type="text/css">
	.st0{fill:#779F41;}
</style>
<g>
	<g>
		<path d="M507.7,145.2c-7.4,0-14.2,0-21.4,0c0-38.9,0-77.5,0-116.6c-39.1,0-77.8,0-116.9,0c0-7.5,0-14.4,0-21.7
			c1.5-0.1,3.1-0.2,4.7-0.2c40.3,0,80.7,0,121,0c8.7,0,12.7,3.8,12.7,12.4c0,40.8,0,81.7,0,122.5
			C507.8,142.6,507.7,143.7,507.7,145.2z"/>
		<path d="M6.1,369.7c7.5,0,14.3,0,21.6,0c0,38.9,0,77.6,0,116.8c39.2,0,77.8,0,116.8,0c0,7.3,0,14.2,0,21.9c-1.6,0-3.3,0-5.1,0
			c-40,0-80,0-120,0c-9.7,0-13.4-3.6-13.4-13.2c0-40,0-80,0-120C6.1,373.5,6.1,371.8,6.1,369.7z"/>
		<path d="M28,145.2c-7.7,0-14.5,0-21.8,0c0-2,0-3.8,0-5.6c0-39.8,0-79.7,0-119.5c0-9.9,3.6-13.5,13.6-13.5c39.8,0,79.7,0,119.5,0
			c1.7,0,3.3,0,5.4,0c0,7.2,0,14.1,0,21.5c-38.6,0-77.3,0-116.6,0C28,67.4,28,106.1,28,145.2z"/>
		<path d="M486.2,486.8c0-39.5,0-78.1,0-117c7.3,0,14.2,0,21.4,0c0.1,1.7,0.2,3.4,0.2,5c0,39.8,0,79.7,0,119.5
			c0,10.7-3.4,14.1-14,14.1c-39.8,0-79.7,0-119.5,0c-1.5,0-3,0-4.9,0c0-7.1,0-14,0-21.5C408,486.8,446.7,486.8,486.2,486.8z"/>
	</g>
</g>
<g>
	<g>
		<path class="st0" d="M169.4,272.7c-7.4-1.8-11.6-6.6-15.4-11.9c-1.5-2.1,0.4-3.3,1.8-4.3c1.1-0.8,2.2-1.5,0.8-2.6
			c-4.2-3.3-4.1-8.1-4.8-12.6c-0.3-1.7,0.6-3.5-0.5-5.1c-0.2-0.3,0.1-1.3,0.4-1.6c3-2.4,5.6-5.5,9.7-5.8c2.3-0.2,3.6-1,3.3-3.4
			c-0.2-2.3,1.1-2.8,3-2.6c2.3,0.1,4.6-0.3,6.8,0.8c1.8,0.8,3.2,1,4.8-1c2-2.4,5.7-2,7.6-0.8c2.8,1.7,5.3,0.8,7.7,0.6
			c3.9-0.3,7.3-0.1,10.1,2.9c0.2,0.2,0.7,0.1,1,0.2c7.3,1.8,13.9,4.8,20.1,9.4c5.4,4,11.7,7.2,16.6,11.6c6.1,5.6,13.5,10.5,16,19.2
			c0.1,0.5,0.2,1.3,1,1.2c0.8,0,0.7-0.7,0.8-1.3c0.2-1.5,0.5-2.9,0.9-4.3c1.4-4.9-1.3-7.8-5-9.9c-3.9-2.2-7-5.3-9.8-8.6
			c-3.9-4.6-8.3-8.7-11.7-13.9c-2.9-4.6-5.8-9-6.8-14.5c-0.8-4.3-2.7-8.5-3.4-12.8c-1.1-6.3-1.1-12.5,0.3-18.9c1.2-5.8,1-12,1.6-18
			c0.4-4.8,1.8-5.8,6.5-4.5c2.2,0.6,2.7,0.1,2.8-2c0.2-4.4,0.2-8.7,2.7-12.9c2.6-4.2,3.7-5.3,8.4-3.6c2.1,0.8,2.6,0.3,3.4-1.7
			c2.5-6.5,5-13,13.3-14.4c3.4-0.6,6,0.8,8.5,2c3.5,1.8,7.1,3.7,10,6.5c0.6,0.6,1.5,1.2,1.5,1.8c0,3.9,2.4,3.3,5,2.9
			c2.9-0.5,4.3,1.5,4.4,3.9c0.3,4.6,3.2,8.7,2.9,13.4c-0.1,0.9,0.4,1.6,1.7,1.7c4.9,0.5,7.2,3,7.2,8.4c0,3.3-0.5,6.6-0.9,9.9
			c-0.2,1.7-0.4,2.9,2.1,3.5c2.5,0.6,4.7,2.5,4.1,5.7c-0.9,5.1-0.2,10.6-3.5,15.3c-1.4,2-0.2,4.6-1,7c-2.1,7-5.1,13.5-9.3,19.6
			c-3,4.2-6,8.3-9.4,12.3c3.2-1.3,6.8-1,9.5-3.3c1.2-1,2.3-1.4,3.7-1.5c4.3-0.3,7.9-2.8,11.5-4.7c2.3-1.2,5-1,7.1-2.5
			c0.3-0.2,1.4-0.1,1.7,0.3c3.2,4.4,7.3,1.9,11.2,1.6c2.1-0.2,4.7-1.4,6.2,1.6c0.2,0.3,1.3,0.6,1.6,0.4c2.6-2,5,1.2,7.6,0.1
			c0.8-0.3,2,0.5,2,1.1c0.4,3.7,3.6,3,5.8,3.7c5.1,1.6,5.7,4.2,4,8.5c-1.4,3.6-2.8,6.9-5.3,9.9c-0.8,1-0.8,2.1,0.2,3.2
			c2.4,2.6,2.3,4.7-0.1,7.2c-3,3.2-6.6,5.3-10.7,6.6c-2,0.6-2.8,1.3-0.7,2.6c1.3,0.8,1.7,2.2,2.5,3.3c2.1,2.7-1,4.4-2.4,5.1
			c-4,2-7.3,4.8-10.5,7.6c-1,0.9-2.1,1.5-3.4,1.9c-2.9,0.9-5,2-5,5.8c0,3.3-3.3,4.2-5.9,4.7c-3.1,0.6-6.1,1.7-9.3,1.7
			c-3.5,0-6.5,1.6-9.8,2.6c-4.6,1.4-9.7,0.8-14.3-1.1c-4.8-2.1-9.6-4.1-13.4-8c-2.9-3-5.2-6.3-5.4-10.7c0-1.3-0.5-2.5-0.8-3.7
			c-0.4-2.1-1.9-4-3.4-4.1c-1.7-0.1-3.8,0.9-5.3,2.7c-2.9,3.5-4.3,8-7.9,11c-5.9,4.9-11.9,9.4-19.6,10.9c-2.3,0.4-3.9,2-6,2.8
			c-3.8,1.6-7.6,1.2-11.4,1.7c-0.5,0.1-0.9,0.2-1.3-0.3c-2.7-4-7.2-3.4-11-4.4c-1.7-0.5-3.5-0.7-5.1-1.5c-2.6-1.4-4-3.7-2.8-6.7
			c1-2.5-0.1-3-2.4-3.7c-6.6-2-13.8-2.6-18.6-8.8c-1.1-1.5-4-1.4-3.8-4.3C166.2,276.3,166.6,274.2,169.4,272.7z M267.6,254.8
			c-3.2,0.1-6,3.6-5.2,6.4c0.1,0.5,0.6,1,1,1.4c0.4,0.3,0.9,0.1,1.1-0.4c0.7-2.2,2.2-3.8,3.8-5.4c0.3-0.3,0.4-1.1,0.3-1.6
			C268.6,254.3,268,254.7,267.6,254.8z M265.7,205c-0.2,0.1-0.3,0.1-0.5,0.2c-0.1-2.6-0.3-5.1-0.4-7.7c0.2,0,0.3,0,0.5,0
			C265.4,200,265.6,202.5,265.7,205z"/>
		<path class="st0" d="M259.5,293.2c1.3,2.6,1.4,5.5,1.5,8.1c0.3,5.9,0.5,11.8,0.8,17.6c0.5,12,0.8,24,1.5,36
			c0.2,3.4,0.9,6.8-0.2,10.3C260.3,341.3,259.7,317.2,259.5,293.2z"/>
	</g>
</g>
</svg>
